<svg width="154" height="28" viewBox="0 0 154 28" fill="none" xmlns="http://www.w3.org/2000/svg">
<path d="M139.58 4.14143C136.861 4.14143 134.569 5.09856 132.706 7.01282C130.843 8.92708 129.912 11.2463 129.912 13.9704C129.912 16.6946 130.843 19.0138 132.706 20.928C134.569 22.8055 136.861 23.7442 139.58 23.7442C142.3 23.7442 144.592 22.8055 146.455 20.928C148.318 19.0138 149.249 16.6946 149.249 13.9704C149.249 11.2463 148.318 8.92708 146.455 7.01282C144.592 5.09856 142.3 4.14143 139.58 4.14143ZM139.58 27.9408C135.482 27.9408 132.054 26.6156 129.297 23.9651C126.54 21.2777 125.161 17.9462 125.161 13.9704C125.161 9.99464 126.54 6.6815 129.297 4.03099C132.054 1.34366 135.482 0 139.58 0C143.679 0 147.107 1.34366 149.864 4.03099C152.621 6.6815 154 9.99464 154 13.9704C154 17.9462 152.603 21.2593 149.808 23.9098C147.014 26.5972 143.604 27.9408 139.58 27.9408Z" fill="white"/>
<path d="M116.1 5.13948H100.675V0.998047H122.527V4.53206L106.599 23.6931V23.8035H122.751V28.0002H100.172V24.4661L116.1 5.24991V5.13948Z" fill="white"/>
<path d="M86.7505 28.0002H81.6087L70.5986 0.998047H75.7963L84.1796 21.153L92.6188 0.998047H97.7606L86.7505 28.0002Z" fill="white"/>
<path d="M63.5488 0.998047H68.1876V28.0002H63.5488V0.998047Z" fill="white"/>
<path d="M38 0.998047H42.6388V14.1402L44 12.7112L55.1579 0.998047H60.9703L50.0161 12.8149L61.138 28.0002H55.6609L46.6069 16.1833L44 12.7112L42.6388 14.1402V20.4352V28.0002H38V0.998047Z" fill="white"/>
<rect width="28" height="28" rx="2" fill="#F08F64"/>
<mask id="mask0_431_367" style="mask-type:alpha" maskUnits="userSpaceOnUse" x="0" y="0" width="28" height="28">
<rect width="28" height="28" rx="2" fill="#D9D9D9"/>
</mask>
<g mask="url(#mask0_431_367)">
<path d="M8.24383 6H4V31.2H8.24383V24.1399V18.265V6Z" fill="black"/>
<path d="M25.0146 6H19.697L10.0557 16.3247C9.72723 16.6765 9.69593 17.2124 9.98122 17.6L11.8741 20.1718L20.1572 31.2H25.168L14.993 17.0282L25.0146 6Z" fill="black"/>
</g>
</svg>
